<?xml version="1.0" encoding="UTF-8" standalone="no"?>
<!DOCTYPE svg PUBLIC "-//W3C//DTD SVG 1.1//EN" "http://www.w3.org/Graphics/SVG/1.1/DTD/svg11.dtd">
<svg width="100%" height="100%" viewBox="0 0 2363 2363" version="1.1" xmlns="http://www.w3.org/2000/svg" xmlns:xlink="http://www.w3.org/1999/xlink" xml:space="preserve" xmlns:serif="http://www.serif.com/" style="fill-rule:evenodd;clip-rule:evenodd;stroke-linejoin:round;stroke-miterlimit:2;">
    <rect x="3" y="-2" width="2362" height="2367" style="fill:rgb(255,209,26);"/>
    <g transform="matrix(63.507619,0,0,56.880916,-54726.82445,-72727.95481)">
        <path d="M874.486,1300.057C875.936,1297.057 878.886,1294.557 881.986,1294.557C883.836,1294.557 883.836,1299.607 883.836,1299.607L883.836,1299.857C880.436,1301.507 874.686,1304.357 870.236,1306.657C869.075,1307.274 868.596,1308.249 868.596,1309.38C868.596,1313.018 873.558,1318.257 876.686,1318.257C879.536,1318.257 883.136,1314.657 884.136,1313.607L884.136,1314.507C884.136,1317.407 886.386,1317.957 886.386,1317.957L891.986,1315.557C890.217,1314.152 890.135,1311.594 890.135,1311.131C890.135,1311.083 890.136,1311.057 890.136,1311.057L890.136,1298.857C890.136,1298.857 890.136,1298.855 890.136,1298.849C890.136,1298.643 890.041,1294.736 882.936,1291.962C881.335,1291.329 879.888,1291.085 878.609,1291.085C874.335,1291.085 871.936,1293.807 871.936,1293.807L874.486,1300.057ZM883.886,1301.707L884.136,1311.957C883.178,1312.368 881.376,1312.662 879.693,1312.662C878.917,1312.662 878.167,1312.599 877.536,1312.457C876.3,1312.17 875.312,1310.661 875.312,1309.049C875.312,1307.857 875.854,1306.608 877.236,1305.757C881.436,1303.207 883.136,1302.157 883.886,1301.707Z" style="fill-rule:nonzero;"/>
    </g>
    <g transform="matrix(52.428571,0,0,52.428571,-13681.742494,-40112.11479)">
        <g transform="matrix(50,0,0,50,288.367215,776.777232)">
        </g>
        <text x="277.717px" y="776.777px" style="font-family:'Maragsa-Display', 'Maragsa';font-size:50px;">.</text>
    </g>
</svg>
